<?xml version="1.0" encoding="UTF-8"?><svg id="a" xmlns="http://www.w3.org/2000/svg" viewBox="0 0 38.04 37.94"><defs><style>.b{font-family:Lato-Bold, Lato;font-size:6.05px;}</style></defs><text class="b" transform="translate(5.31 22.11) rotate(-95.35)"><tspan x="0" y="0">Z</tspan></text><text class="b" transform="translate(5.1 17.11) rotate(-75.21)"><tspan x="0" y="0">o</tspan></text><text class="b" transform="translate(6.63 12.38) rotate(-54.76)"><tspan x="0" y="0">b</tspan></text><text class="b" transform="translate(9.69 8.54) rotate(-35.33)"><tspan x="0" y="0">a</tspan></text><text class="b" transform="translate(13.56 6.11) rotate(-16.74)"><tspan x="0" y="0">c</tspan></text><text class="b" transform="translate(17.85 5.08) rotate(1.18)"><tspan x="0" y="0">z</tspan></text><text class="b" transform="translate(22.17 5.46) rotate(16.39)"><tspan x="0" y="0"> </tspan></text><text class="b" transform="translate(25.03 6.48) rotate(29.03)"><tspan x="0" y="0"> </tspan></text><text class="b" transform="translate(27.54 7.96) rotate(44.48)"><tspan x="0" y="0">v</tspan></text><text class="b" transform="translate(30.65 11.48) rotate(60.45)"><tspan x="0" y="0">i</tspan></text><text class="b" transform="translate(32.1 14.21) rotate(77.17)"><tspan x="0" y="0">d</tspan></text><text class="b" transform="translate(32.92 19.05) rotate(96.88)"><tspan x="0" y="0">e</tspan></text><text class="b" transform="translate(32.12 23.71) rotate(116.95)"><tspan x="0" y="0">o</tspan></text><text class="b" transform="translate(29.54 27.97) rotate(133.38)"><tspan x="0" y="0"> </tspan></text><text class="b" transform="translate(27.32 30.07) rotate(145.96)"><tspan x="0" y="0"> </tspan></text><text class="b" transform="translate(24.69 31.64) rotate(158.66)"><tspan x="0" y="0"> </tspan></text><text class="b" transform="translate(21.77 32.58) rotate(171.4)"><tspan x="0" y="0"> </tspan></text><text class="b" transform="translate(18.71 32.87) rotate(-176.02)"><tspan x="0" y="0"> </tspan></text></svg>