<svg xmlns="http://www.w3.org/2000/svg" width="1283.18" height="505.5" viewBox="0 0 1283.18 505.5">
  <defs>
    <style>
      .cls-1 {
        fill: #ffd829;
        fill-rule: evenodd;
      }
    </style>
  </defs>
  <path id="Delfina_Piotr" data-name="Delfina Piotr" class="cls-1" d="M3608.26,416.861q-10.545,8.4-28.63,8.4-15.3,0-24.66-5.49t-15.61-17.978l-3.87,3.66q-22.395,19.806-52.53,19.808-20.67,0-35.21-12.81-14.52-12.808-14.53-30.9t14.43-30.035q14.415-11.949,60.28-24.006,22.17-5.814,31.87-9.474,0-23.035-9.91-33.371t-31.43-10.335q-33.81,0-49.95,27.774h-6.46q6.675-26.912,26.16-41.661t48.33-14.748q33.375,0,53.29,16.363t19.92,45.859v78.37q0,22.179,10.11,22.176,10.56,0,13.14-15.5h7.1Q3618.81,408.464,3608.26,416.861Zm-68.9-90q-32.94,14-43.59,24.114Q3485.1,361.1,3485.11,377.03q0,13.565,6.35,21.853a20.021,20.021,0,0,0,16.69,8.29q13.98,0,31.21-17.225V326.865Zm-218.38,84.183q14.64-3.23,20.45-9.8t5.81-20.131v-68.9q0-18.73-8.07-29.173t-22.71-10.442q-25.635,0-41.34,29.065V379.4q0,14.856,5.16,21.1t19.38,10.55v7.536H3199.12v-7.536q14.625-3.659,20.34-9.9t5.71-18.731V289.4q0-14.209-6.57-20.669t-23.36-8.827V252.37l72.34-6.674h7.54v40.692h0.86q23.895-40.692,63.08-40.692,24.54,0,41.34,16.47t16.79,44.03v72.772q0,15.719,5.6,22.069t20.46,10.011v7.536H3320.98v-7.536Zm-76.91,77.268h-54.69v95.809q0,22.608,7.21,32.619t23.15,10.011q13.125,0,24.33-13.133l5.16,4.952q-17.43,29.5-53.39,29.5-26.7,0-41.56-13.779t-14.85-39.185V488.316H3109.5v-8.4q30.645-18.777,65.27-61.335h-91.15v-7.536q16.785-3.23,22.28-9.473t5.49-22.176v-88.7q0-15.285-5.81-21.315t-24.12-9.473V252.37l72.35-6.674h7.53V382.843q0,24.209,25.31,27.964h2.73v64.375h54.69v13.134ZM3136.58,200.267a27.828,27.828,0,0,1-20.56-8.612,30.1,30.1,0,0,1-5.58-7.737l-16.34,20.009h-7.11c0.14-2.153.22-4.306,0.22-6.459q0-19.16-8.62-31.111t-20.67-11.949q-27.345,0-27.34,48.658v49.3h37.03v13.564h-37.03V373.155q0,21.315,5.49,27.666t28.74,10.227v7.536H2948.98v-7.536q18.735-2.583,25.19-9.473t6.46-27.99V265.934h-26.48v-6.028q14.64-3.23,21.21-10.981,6.555-7.75,7.85-30.142,1.3-23.035,6.79-35.417a68.352,68.352,0,0,1,15.39-21.853q20.235-18.944,63.95-18.947,26.385,0,45.68,9.476c0.33-.36.65-0.729,1-1.079a28.187,28.187,0,0,1,20.56-8.4,27.787,27.787,0,0,1,20.24,8.289,27.479,27.479,0,0,1,8.4,20.346,28.181,28.181,0,0,1-8.4,20.561A27.415,27.415,0,0,1,3136.58,200.267Zm-67.44,294.077q28.425,25.838,28.42,63.73,0,38.325-28.52,64.16T2994,648.07q-46.5,0-75.24-25.728-28.755-25.726-28.75-64.268,0-23.9,13.24-45.429a86.235,86.235,0,0,1,36.39-32.834q23.145-11.3,54.36-11.3Q3040.725,468.508,3069.14,494.344Zm-111.52,6.92q-12.495,20.912-12.49,59.935,0,34.284,13.24,54.657T2994,636.229q22.83,0,35.64-20.589t12.81-57.458q0-37.08-12.6-57.456T2994,480.35Q2970.105,480.35,2957.62,501.264Zm-133.37-78.185a27.824,27.824,0,0,1-20.56-8.612,29.413,29.413,0,0,1-6.41-9.488c-2.14,1.67-4.36,3.269-6.69,4.777a94.354,94.354,0,0,1-31.94,13.256,62.449,62.449,0,0,1,6.51,28.7q0,32.73-26.16,53.611t-72.02,20.884a256.857,256.857,0,0,1-32.72-2.153V597.69q0,17.439,6.99,25.19,7.005,7.75,25.3,10.98V641.4H2544.69V633.86q19.59-3.875,26.16-11.734t6.57-27.451V426.309q0-17.652-6.25-24.329a19.537,19.537,0,0,0-3.85-3.087q-33.06,19.685-81.21,19.691H2336.9v-7.536q20.46-5.6,26.59-12.38t6.14-29.389V204.788q0-17.439-6.14-24.329t-26.59-12.272v-7.536h131.98q71.91,0,113.57,36.386t41.66,95.81q0,56.547-36.33,90.617h70.75q-12.615-20.344-12.62-46.911,0-38.754,26.59-64.806t65.99-26.051q35.52,0,59.1,20.346t28.09,54.579H2699.73q-0.21,3.447-.21,6.89,0,33.8,16.98,54.9a61.656,61.656,0,0,0,12.31,11.758,75.673,75.673,0,0,1,7.64,4.5,51.053,51.053,0,0,0,22.17,4.838,62.1,62.1,0,0,0,36.66-11.56,27.3,27.3,0,0,1,8.41-18.177,28.187,28.187,0,0,1,20.56-8.4,27.787,27.787,0,0,1,20.24,8.289,27.473,27.473,0,0,1,8.39,20.346,28.711,28.711,0,0,1-2.93,12.949,25.956,25.956,0,0,0,8.94-5.71q6.675-6.995,6.67-23.145V188q0-17.87-6.78-25.083t-24.44-8.074V147.3l73.64-4.737h7.53V378.107q0,16.581,5.49,22.714t24.01,10.227v7.536H2839.63A27.247,27.247,0,0,1,2824.25,423.079ZM2535.41,206.188q-26.91-30.892-75.36-30.9h-33.58V373.585q0,16.583,9.68,23.468t32.3,6.89q44.775,0,69.33-29.712,24.54-29.711,24.54-83.968Q2562.32,237.087,2535.41,206.188ZM2772.07,310.5q-1.5-23.465-11.87-38.216t-25.48-14.749q-15.12,0-24.62,14.426T2699.52,310.5h72.55ZM2690.93,414.2a87.739,87.739,0,0,1-17.95-13.162A47.531,47.531,0,0,0,2656,398.1h-21.74V508.77a64.981,64.981,0,0,0,18.94,3.014q23.685,0,37.04-15.179,13.335-15.179,13.34-42.522Q2703.58,429.575,2690.93,414.2Zm158.08,54.313V605.656q0,24.978,26.91,28.2V641.4H2771.29V633.86q16.785-3.23,22.28-9.473t5.49-22.176V513.506q0-15.285-5.81-21.315t-24.12-9.473v-7.536l72.34-6.674h7.54Zm480.79,0v52.964h0.86q23.685-52.963,55.12-52.964,17.22,0,29.5,14.1l-10.98,50.274q-22.605-21.528-37.46-21.531a35.161,35.161,0,0,0-19.17,5.168q-8.175,5.166-17.87,18.516v68.035q0,15.936,5.6,21.746t22.61,9.042V641.4H3252.08V633.86q16.365-3.875,22.07-10.119t5.7-20.669V515.229q0-15.714-7.21-23.468t-23.14-9.043v-7.536l72.77-6.674h7.53Z" transform="translate(-2336.91 -142.562)"/>
</svg>
