<svg xmlns="http://www.w3.org/2000/svg" width="80" height="64.75" viewBox="0 0 80 64.75">
  <defs>
    <style>
      .cls-1 {
        fill-rule: evenodd;
      }
    </style>
  </defs>
  <path id="D_P_kopia" data-name="D     P kopia" class="cls-1" d="M165.436,138.461q-4.59,3.664-12.637,3.665a45.136,45.136,0,0,1-5.743-.378v12.921a6.5,6.5,0,0,0,1.228,4.42,7.725,7.725,0,0,0,4.439,1.927v1.322H131.34v-1.322q3.436-.679,4.59-2.059t1.152-4.817V133.126a19.68,19.68,0,0,1-3.178,3.727q-6.535,6.007-17.681,6.007H90.042v-1.322q3.589-.981,4.666-2.172t1.077-5.157V105.345q0-3.06-1.077-4.269t-4.666-2.154V97.6H113.2q12.618,0,19.929,6.385a20.632,20.632,0,0,1,7.06,13.093h14.384q7.179,0,11.316,3.324a10.581,10.581,0,0,1,4.137,8.652A11.5,11.5,0,0,1,165.436,138.461ZM124.875,105.59q-4.724-5.421-13.223-5.421h-5.894v34.8q0,2.91,1.7,4.118t5.667,1.209q7.859,0,12.166-5.213t4.307-14.735Q129.6,111.013,124.875,105.59Zm32.042,16.777a7.538,7.538,0,0,0-6.045-2.72h-3.816v19.419a11.4,11.4,0,0,0,3.325.529,8.2,8.2,0,0,0,6.5-2.664q2.342-2.664,2.342-7.462A10.612,10.612,0,0,0,156.917,122.367Z" transform="translate(-90.031 -97.594)"/>
</svg>
