<svg id="marker_wedding" xmlns="http://www.w3.org/2000/svg" width="55.88" height="74.53" viewBox="0 0 55.88 74.53">
  <defs>
    <style>
      .cls-1, .cls-2, .cls-3 {
        fill-rule: evenodd;
      }

      .cls-1 {
        opacity: 0.16;
      }

      .cls-2 {
        fill: #ffd829;
      }
    </style>
  </defs>
  <path id="Kształt_1_kopia_2" data-name="Kształt 1 kopia 2" class="cls-1" d="M3014.61,3039.19c0.54,1.09,1.16,2.19,1.82,3.31,0.61,1.02,1.26,2.05,1.92,3.1,0.9,1.42,1.84,2.88,2.76,4.4h0.69c2.28-1.54,4.52-3.01,6.69-4.44,1.62-1.05,3.2-2.09,4.72-3.1,1.66-1.11,3.26-2.2,4.78-3.28,4.26-3.04,7.82-5.99,10.15-9.03,3.35-5.29-3.54-9.93-12.18-10.14h-2.07c-9.02.21-20.44,5.1-21.34,10.48A16.349,16.349,0,0,0,3014.61,3039.19Z" transform="translate(-2993.78 -2975.47)"/>
  <path id="Kształt_1" data-name="Kształt 1" class="cls-2" d="M3009.72,2988.66a24.058,24.058,0,0,0,38.7,21.84,86.42,86.42,0,0,1-10.62,19.28c-1.6,2.27-3.26,4.5-4.96,6.71-1.51,1.97-3.04,3.92-4.57,5.87-1.99,2.54-3.98,5.08-5.91,7.64h-0.82c-1.95-2.53-3.96-5.04-5.96-7.57-1.53-1.94-3.06-3.88-4.57-5.85-1.7-2.23-3.37-4.48-4.98-6.78a86.653,86.653,0,0,1-11.24-20.98c-4.53-14.64,6.87-30.26,21.29-33.36A16.882,16.882,0,0,0,3009.72,2988.66Z" transform="translate(-2993.78 -2975.47)"/>
  <path id="Kształt_2_kopia" data-name="Kształt 2 kopia" class="cls-3" d="M3040.61,2984.55a14,14,0,1,0,9.04,13.09A14.038,14.038,0,0,0,3040.61,2984.55Zm-18.24,8.63a6.313,6.313,0,0,1,8.81-8.81A14.126,14.126,0,0,0,3022.37,2993.18Zm18.42,0.79a6.322,6.322,0,0,1-8.82,8.82,14.11,14.11,0,0,0,8.82-8.82h0Zm-24.57-4.46a11.3,11.3,0,1,1,13.79,11.01,6.076,6.076,0,0,1-.65-2.16,9.051,9.051,0,1,0-7.67-1.94c-0.03.4-.05,0.81-0.05,1.22a13.642,13.642,0,0,0,.09,1.57A11.288,11.288,0,0,1,3016.22,2989.51Zm13.49,5.93a6.359,6.359,0,0,1,3.73-3.73,6.359,6.359,0,0,1-3.73,3.73h0Zm5.93,13.5a11.305,11.305,0,0,1-11.29-11.3,12.751,12.751,0,0,1,.11-1.63,11.343,11.343,0,0,1,8.68-9.38,6.289,6.289,0,0,1,.66,2.17,9.041,9.041,0,0,0-7.18,8.3c-0.01.18-.01,0.36-0.01,0.54a9.035,9.035,0,1,0,14.85-6.91c0.04-.4.06-0.81,0.06-1.22a13.773,13.773,0,0,0-.09-1.57,11.3,11.3,0,0,1-5.79,21h0Z" transform="translate(-2993.78 -2975.47)"/>
</svg>
