<svg id="marker-party" xmlns="http://www.w3.org/2000/svg" width="58.22" height="85" viewBox="0 0 58.22 85">
  <defs>
    <style>
      .cls-1, .cls-2, .cls-3 {
        fill-rule: evenodd;
      }

      .cls-1 {
        opacity: 0.16;
      }

      .cls-2 {
        fill: #ffd829;
      }
    </style>
  </defs>
  <path id="Kształt_1_kopia_3" data-name="Kształt 1 kopia 3" class="cls-1" d="M3106.61,3039.19c0.54,1.09,1.16,2.19,1.82,3.31,0.61,1.02,1.26,2.05,1.92,3.1,0.9,1.42,1.84,2.88,2.76,4.4h0.69c2.28-1.54,4.52-3.01,6.69-4.44,1.62-1.05,3.2-2.09,4.72-3.1,1.66-1.11,3.26-2.2,4.78-3.28,4.26-3.04,7.82-5.99,10.15-9.03,3.35-5.29-3.54-9.93-12.18-10.14h-2.07c-9.02.21-20.44,5.1-21.34,10.48A16.349,16.349,0,0,0,3106.61,3039.19Z" transform="translate(-3085.78 -2965)"/>
  <path id="Kształt_1_kopia" data-name="Kształt 1 kopia" class="cls-2" d="M3103,2989.5a23.5,23.5,0,0,0,38.4,18.17c-0.02.07-.03,0.14-0.05,0.22-2.6,7.99-6.78,15.12-11.55,21.89-1.6,2.27-3.26,4.5-4.96,6.71-1.51,1.97-3.04,3.92-4.57,5.87-1.99,2.54-3.98,5.08-5.91,7.64h-0.82c-1.95-2.53-3.96-5.04-5.96-7.57-1.53-1.94-3.06-3.88-4.57-5.85-1.7-2.23-3.37-4.48-4.98-6.78a86.653,86.653,0,0,1-11.24-20.98c-4.48-14.48,6.63-29.94,20.83-33.27A23.353,23.353,0,0,0,3103,2989.5Z" transform="translate(-3085.78 -2965)"/>
  <path id="Kształt_3" data-name="Kształt 3" class="cls-3" d="M3124.7,3004.89c0.49,0.03.98,0.05,1.48,0.06v2.31c-0.31-.01-0.62-0.03-0.93-0.05A22.483,22.483,0,0,1,3124.7,3004.89Zm8.64-18.77c-0.06-.96-0.14-1.89-0.25-2.8-0.91-.11-1.84-0.19-2.79-0.26,0.06,0.95.1,1.93,0.13,2.92C3131.43,2986.01,3132.4,2986.06,3133.34,2986.12Zm-16.02-6.77c0.87-.21,1.76-0.39,2.68-0.54,0.2-.94.44-1.84,0.7-2.67a25.113,25.113,0,0,0-2.52.65C3117.87,2977.6,3117.58,2978.45,3117.32,2979.35Zm15.18-3.21c0.26,0.83.49,1.73,0.7,2.67q1.38,0.225,2.67.54a25.6,25.6,0,0,0-.86-2.56A24.919,24.919,0,0,0,3132.5,2976.14Zm-5.48,31.12c0.31-.01.62-0.03,0.93-0.05,0.18-.62.37-1.38,0.55-2.32-0.49.03-.98,0.05-1.48,0.06v2.31Zm7.88-2.12a17.681,17.681,0,0,0,2.25-1.46c0.18-.3.36-0.61,0.54-0.92-0.66.28-1.35,0.55-2.06,0.78C3135.4,3004.09,3135.16,3004.63,3134.9,3005.14Zm-16.3-1.28a21.26,21.26,0,0,0,.96,1.91,18.437,18.437,0,0,0,2.33.84,19.365,19.365,0,0,1-.89-2.18C3120.17,3004.27,3119.38,3004.08,3118.6,3003.86Zm12.71,2.75a18.437,18.437,0,0,0,2.33-.84,21.26,21.26,0,0,0,.96-1.91q-1.17.33-2.4,0.57A19.365,19.365,0,0,1,3131.31,3006.61Zm-6.96-34.08c-0.47.07-.94,0.15-1.39,0.24a18.272,18.272,0,0,0-1,2.29c0.62-.1,1.24-0.18,1.87-0.24C3123.99,2973.97,3124.16,2973.2,3124.35,2972.53Zm-2.39,32.07a18.1,18.1,0,0,0,1,2.28c0.45,0.09.92,0.18,1.39,0.23-0.19-.66-0.36-1.43-0.52-2.28C3123.2,3004.77,3122.58,3004.69,3121.96,3004.6Zm19.73-15.19h2.3c-0.01-.32-0.03-0.63-0.05-0.94-0.62-.18-1.38-0.37-2.31-0.55C3141.66,2988.41,3141.68,2988.91,3141.69,2989.41Zm-32.48,0h2.3c0.01-.5.03-1,0.06-1.49-0.93.18-1.69,0.37-2.31,0.55C3109.23,2988.78,3109.22,2989.09,3109.21,2989.41Zm3.14,0h2.75c0-.69.03-1.37,0.06-2.04-0.97.12-1.89,0.25-2.74,0.4C3112.38,2988.31,3112.36,2988.85,3112.35,2989.41Zm27.15,11.53c0.31-.17.62-0.35,0.92-0.54a17.681,17.681,0,0,0,1.46-2.25c-0.52.26-1.05,0.5-1.6,0.73A21.922,21.922,0,0,1,3139.5,3000.94Zm1.1-3.1a21.05,21.05,0,0,0,1.9-.96,15.773,15.773,0,0,0,.84-2.33,19.365,19.365,0,0,1-2.18.89C3141.01,2996.26,3140.82,2997.06,3140.6,2997.84Zm-11.75,9.27c0.47-.05.93-0.14,1.39-0.23a19.678,19.678,0,0,0,1-2.28c-0.62.09-1.24,0.17-1.88,0.23C3129.2,3005.68,3129.03,3006.45,3128.85,3007.11Zm7.96-27.52c0.85,0.23,1.67.49,2.45,0.78a23.205,23.205,0,0,0-.95-2.28,21.045,21.045,0,0,0-2.28-.96Q3136.465,2978.315,3136.81,2979.59Zm0.88-2.7c-0.18-.31-0.36-0.62-0.54-0.92a17.681,17.681,0,0,0-2.25-1.46c0.26,0.51.5,1.05,0.73,1.6C3136.34,2976.35,3137.03,2976.6,3137.69,2976.89Zm3.09,10.88c-0.85-.15-1.77-0.28-2.75-0.4,0.04,0.67.06,1.35,0.07,2.04h2.75C3140.84,2988.85,3140.82,2988.31,3140.78,2987.77Zm0.78-.72c0.86,0.16,1.62.33,2.29,0.52-0.07-.47-0.15-0.94-0.24-1.39a18.1,18.1,0,0,0-2.28-1C3141.43,2985.79,3141.51,2986.42,3141.56,2987.05Zm-1.31,8.69c-0.83.26-1.72,0.5-2.67,0.71-0.15.91-.32,1.81-0.53,2.67a26.281,26.281,0,0,0,2.55-.86A24.434,24.434,0,0,0,3140.25,2995.74Zm-3.06-8.47c-0.95-.1-1.93-0.18-2.95-0.26q0.06,1.185.06,2.4h2.96C3137.26,2988.69,3137.23,2987.98,3137.19,2987.27Zm-21.68,15.49c0.17,0.31.35,0.62,0.54,0.92a18.3,18.3,0,0,0,2.24,1.46c-0.25-.51-0.5-1.05-0.73-1.6C3116.86,3003.31,3116.17,3003.04,3115.51,3002.76Zm8.64-24.4c0.67-.04,1.35-0.06,2.03-0.06v-2.76c-0.55.01-1.1,0.03-1.64,0.07C3124.4,2976.47,3124.27,2977.39,3124.15,2978.36Zm10.45-2.57c-0.3-.67-0.62-1.31-0.96-1.91a17,17,0,0,0-2.33-.84,19.365,19.365,0,0,1,.89,2.18Q3133.43,2975.46,3134.6,2975.79Zm-1.62,21.41q-1.335.15-2.73,0.24c-0.08,1.02-.16,2-0.26,2.94,0.85-.07,1.68-0.16,2.49-0.28C3132.67,2999.18,3132.84,2998.21,3132.98,2997.2Zm5-10.68c0.96,0.11,1.87.24,2.73,0.38-0.07-.69-0.16-1.37-0.28-2.04-0.84-.27-1.75-0.52-2.71-0.74C3137.83,2984.9,3137.91,2985.71,3137.98,2986.52Zm-9.33-10.91c-0.54-.04-1.08-0.06-1.63-0.07v2.76c0.68,0,1.36.02,2.03,0.06C3128.93,2977.39,3128.8,2976.47,3128.65,2975.61Zm-15.73,5.16c0.23-.71.49-1.4,0.77-2.06-0.31.17-.61,0.35-0.91,0.54a17.681,17.681,0,0,0-1.46,2.25C3111.83,2981.24,3112.37,2981,3112.92,2980.77Zm11.78-6.01c0.49-.03.98-0.05,1.48-0.06v-2.3c-0.31,0-.62.02-0.93,0.04A22.483,22.483,0,0,0,3124.7,2974.76Zm3.25-2.32c-0.31-.02-0.62-0.04-0.93-0.04v2.3c0.5,0.01.99,0.03,1.48,0.06C3128.32,2973.82,3128.13,2973.06,3127.95,2972.44Zm-4.65,5.98c0.11-.97.24-1.88,0.38-2.74-0.69.07-1.37,0.16-2.03,0.28-0.27.84-.52,1.75-0.74,2.72C3121.69,2978.57,3122.49,2978.48,3123.3,2978.42Zm14.28,4.79c0.95,0.2,1.84.44,2.67,0.7a22.122,22.122,0,0,0-.65-2.52,26.281,26.281,0,0,0-2.55-.86C3137.26,2981.4,3137.43,2982.29,3137.58,2983.21Zm3.02-1.4c0.22,0.78.41,1.58,0.56,2.4a19.365,19.365,0,0,1,2.18.89,15.773,15.773,0,0,0-.84-2.33A21.05,21.05,0,0,0,3140.6,2981.81Zm-8.31-3.13c-0.22-.97-0.47-1.88-0.74-2.72-0.67-.12-1.35-0.21-2.04-0.28,0.15,0.86.27,1.77,0.39,2.74C3130.71,2978.48,3131.51,2978.57,3132.29,2978.68Zm-2.3.59c0.1,0.94.18,1.92,0.26,2.94q1.395,0.09,2.73.24c-0.14-1.01-.31-1.97-0.5-2.9C3131.67,2979.43,3130.84,2979.34,3129.99,2979.27Zm-18.12,5.91a17.485,17.485,0,0,0-2.28,1c-0.1.45-.18,0.92-0.24,1.39,0.67-.19,1.43-0.36,2.28-0.52C3111.69,2986.42,3111.77,2985.79,3111.87,2985.18Zm4.2,1.24c0.94-.1,1.92-0.18,2.93-0.25,0.06-.94.14-1.85,0.24-2.74-1,.14-1.97.31-2.89,0.5C3116.23,2984.74,3116.14,2985.57,3116.07,2986.42Zm17.89-2.99c0.1,0.89.18,1.8,0.23,2.74,1.02,0.07,2,.15,2.94.25-0.07-.85-0.17-1.68-0.28-2.49C3135.93,2983.74,3134.96,2983.57,3133.96,2983.43Zm-4.82-4.22c-0.7-.04-1.41-0.07-2.12-0.08v2.97c0.8,0.01,1.6.03,2.38,0.07C3129.33,2981.14,3129.24,2980.16,3129.14,2979.21Zm0.26,18.27c-0.78.04-1.58,0.06-2.38,0.07v2.97c0.71-.01,1.42-0.04,2.12-0.08C3129.24,2999.5,3129.33,2998.51,3129.4,2997.48Zm11.02-18.23c-0.3-.19-0.61-0.37-0.92-0.54a21.922,21.922,0,0,1,.78,2.06c0.55,0.23,1.08.47,1.6,0.73A17.681,17.681,0,0,0,3140.42,2979.25Zm-16.63,2.92c0.79-.04,1.58-0.06,2.39-0.07v-2.97c-0.72.01-1.43,0.04-2.12,0.08C3123.95,2980.16,3123.87,2981.14,3123.79,2982.17Zm-10.85,1.74c0.84-.26,1.73-0.5,2.67-0.7,0.15-.92.33-1.81,0.54-2.68a25.6,25.6,0,0,0-2.56.86C3113.34,2982.2,3113.12,2983.04,3112.94,2983.91Zm-0.34-2.1c-0.67.3-1.31,0.62-1.91,0.96a18.437,18.437,0,0,0-.84,2.33,20.166,20.166,0,0,1,2.18-.89Q3112.27,2982.98,3112.6,2981.81Zm-0.57,13.63a20.166,20.166,0,0,1-2.18-.89,18.437,18.437,0,0,0,.84,2.33c0.6,0.34,1.24.66,1.91,0.97C3112.38,2997.07,3112.19,2996.26,3112.03,2995.44Zm7.78,4.52c-0.18-.92-0.33-1.87-0.46-2.87-0.99-.13-1.95-0.28-2.86-0.46,0.16,0.95.36,1.86,0.58,2.74C3117.95,2999.6,3118.87,2999.79,3119.81,2999.96Zm3.4,0.42c-0.1-.94-0.19-1.92-0.26-2.94q-1.395-.09-2.73-0.24c0.14,1.01.31,1.98,0.5,2.9C3121.53,3000.22,3122.36,3000.31,3123.21,3000.38Zm-6.72-17.36c0.91-.18,1.87-0.33,2.86-0.46,0.13-1,.28-1.95.46-2.87-0.94.17-1.86,0.36-2.74,0.59C3116.85,2981.16,3116.65,2982.08,3116.49,2983.02Zm7.57,17.42c0.69,0.04,1.4.07,2.12,0.08v-2.97c-0.81-.01-1.6-0.03-2.39-0.07C3123.87,2998.51,3123.95,2999.5,3124.06,3000.44Zm-7.91-1.32c-0.21-.86-0.39-1.76-0.54-2.67-0.94-.21-1.83-0.45-2.67-0.71,0.18,0.87.4,1.71,0.65,2.52A25.6,25.6,0,0,0,3116.15,2999.12Zm13.45-5.42q-1.275.03-2.58,0.03v2.98c0.82-.01,1.64-0.03,2.44-0.07C3129.52,2995.68,3129.56,2994.7,3129.6,2993.7Zm7.53-.47c-0.94.1-1.92,0.18-2.94,0.25-0.05.94-.13,1.85-0.23,2.74,1-.14,1.97-0.31,2.89-0.5C3136.96,2994.91,3137.06,2994.08,3137.13,2993.23Zm3.58-.48c-0.86.14-1.77,0.27-2.73,0.38-0.07.81-.15,1.61-0.26,2.4,0.96-.22,1.87-0.47,2.71-0.74C3140.55,2994.12,3140.64,2993.44,3140.71,2992.75Zm0.62,1.72a16.763,16.763,0,0,0,2.28-1c0.09-.45.17-0.92,0.24-1.39-0.67.19-1.43,0.36-2.29,0.52C3141.51,2993.23,3141.43,2993.86,3141.33,2994.47Zm-29.7-1.87c-0.85-.16-1.61-0.33-2.28-0.52,0.06,0.47.14,0.94,0.24,1.39a16.232,16.232,0,0,0,2.28,1C3111.77,2993.86,3111.69,2993.23,3111.63,2992.6Zm3.85,2.93c-0.11-.79-0.2-1.59-0.26-2.4-0.96-.11-1.88-0.24-2.73-0.38q0.105,1.035.27,2.04C3113.6,2995.06,3114.51,2995.31,3115.48,2995.53Zm17.61,0.8c0.11-.91.19-1.84,0.25-2.79-0.94.05-1.91,0.1-2.91,0.13-0.03,1-.07,1.97-0.13,2.92C3131.25,2996.52,3132.18,2996.44,3133.09,2996.33Zm-12.98,0c0.9,0.11,1.83.19,2.79,0.26-0.06-.95-0.11-1.92-0.14-2.92-0.99-.03-1.96-0.08-2.91-0.13C3119.92,2994.49,3120,2995.42,3120.11,2996.33Zm9.55-6.08h-2.64v2.64c0.87,0,1.75-.01,2.6-0.03C3129.64,2992,3129.65,2991.13,3129.66,2990.25Zm11.97,1.48c0.93-.18,1.69-0.37,2.31-0.55,0.02-.31.04-0.62,0.05-0.93h-2.3C3141.68,2990.74,3141.66,2991.24,3141.63,2991.73Zm-30.12-1.48h-2.3c0.01,0.31.02,0.62,0.05,0.93,0.62,0.18,1.38.37,2.31,0.55C3111.54,2991.24,3111.52,2990.74,3111.51,2990.25Zm7.38,0h-2.96c0.01,0.71.04,1.43,0.08,2.12,0.94,0.11,1.93.19,2.95,0.27C3118.92,2991.85,3118.9,2991.06,3118.89,2990.25Zm14.57,0h-2.96c-0.01.87-.02,1.73-0.04,2.58,1-.03,1.98-0.08,2.93-0.14C3133.43,2991.89,3133.46,2991.07,3133.46,2990.25Zm-18.3,2.03c-0.03-.67-0.06-1.35-0.06-2.03h-2.75c0.01,0.55.03,1.09,0.07,1.63C3113.27,2992.03,3114.19,2992.16,3115.16,2992.28Zm8.42,0.58c0.85,0.02,1.72.03,2.6,0.03v-2.64h-2.64C3123.54,2991.13,3123.55,2992,3123.58,2992.86Zm10.66-.22c1.02-.08,2-0.16,2.95-0.27,0.04-.69.07-1.41,0.07-2.12h-2.96C3134.3,2991.06,3134.28,2991.85,3134.24,2992.64Zm-4.73,11.33q1.035-.1,2.04-0.27c0.27-.85.52-1.76,0.74-2.73-0.78.11-1.58,0.2-2.39,0.26C3129.78,3002.2,3129.66,3003.11,3129.51,3003.97Zm-18.19-5.82a17.681,17.681,0,0,0,1.46,2.25c0.3,0.19.6,0.37,0.91,0.54-0.28-.66-0.54-1.35-0.77-2.06C3112.37,2998.65,3111.83,2998.41,3111.32,2998.15Zm9.38,5.36c-0.26-.83-0.5-1.73-0.7-2.67-0.92-.15-1.81-0.33-2.68-0.54,0.26,0.9.55,1.75,0.86,2.56A22.676,22.676,0,0,0,3120.7,3003.51Zm15.17-3.21q-1.29.315-2.67,0.54c-0.21.94-.44,1.84-0.7,2.67a22.5,22.5,0,0,0,2.51-.65A25.6,25.6,0,0,0,3135.87,3000.3Zm0.16,2.22a21.045,21.045,0,0,0,2.28-.96,22.23,22.23,0,0,0,.95-2.28c-0.78.29-1.6,0.55-2.45,0.78Q3136.465,3001.335,3136.03,3002.52Zm-12.35,1.45c-0.14-.86-0.27-1.77-0.38-2.74-0.81-.06-1.61-0.15-2.39-0.26,0.22,0.97.47,1.88,0.74,2.73C3122.31,3003.81,3122.99,3003.9,3123.68,3003.97Zm-14-26.76c0.07-1.44.83-2.56,1.74-2.58h0c-0.97-.02-1.75-1.28-1.75-2.84,0,1.57-.8,2.84-1.78,2.84,0.93,0,1.69,1.13,1.77,2.58h0.02Zm31.22-1.98h0.02c0.08-1.43.83-2.56,1.75-2.57v-0.01c-0.98-.01-1.76-1.28-1.76-2.83,0,1.57-.8,2.84-1.78,2.84C3140.06,2972.66,3140.82,2973.79,3140.9,2975.23Zm-22.28-3.5h0.02c0.13-1.79,1.26-3.18,2.64-3.2v-0.01c-1.47-.02-2.65-1.59-2.65-3.52,0,1.95-1.19,3.52-2.67,3.52C3117.35,2968.52,3118.5,2969.93,3118.62,2971.73Z" transform="translate(-3085.78 -2965)"/>
</svg>
