<svg id="marker_wedding" xmlns="http://www.w3.org/2000/svg" width="60" height="79" viewBox="0 0 60 79">
  <defs>
    <style>
      .cls-1, .cls-2, .cls-3 {
        fill-rule: evenodd;
      }

      .cls-1 {
        opacity: 0.16;
      }

      .cls-2 {
        fill: #ffd829;
      }
    </style>
  </defs>
  <path id="Kształt_1_kopia_2" data-name="Kształt 1 kopia 2" class="cls-1" d="M3014.61,3039.19c0.54,1.09,1.16,2.19,1.82,3.31,0.61,1.02,1.26,2.05,1.92,3.1,0.9,1.42,1.84,2.88,2.76,4.4h0.69c2.28-1.54,4.52-3.01,6.69-4.44,1.62-1.05,3.2-2.09,4.72-3.1,1.66-1.11,3.26-2.2,4.78-3.28,4.26-3.04,7.82-5.99,10.15-9.03,3.35-5.29-3.54-9.93-12.18-10.14h-2.07c-9.02.21-20.44,5.1-21.34,10.48A16.349,16.349,0,0,0,3014.61,3039.19Z" transform="translate(-2991 -2971)"/>
  <path id="Kształt_5" data-name="Kształt 5" class="cls-2" d="M3004.06,3028.75q2.58,3.615,5.32,7.13c1.6,2.06,3.24,4.11,4.87,6.15,2.13,2.66,4.27,5.3,6.35,7.96h0.87c2.06-2.69,4.18-5.36,6.31-8.04,1.63-2.04,3.27-4.1,4.87-6.17,1.81-2.32,3.59-4.67,5.3-7.06,5.07-7.12,9.53-14.63,12.31-23.03,4.26-16.66-10.38-33.82-27.28-34.68h-4.01c-17.26.86-32.16,18.88-26.9,35.66A90.828,90.828,0,0,0,3004.06,3028.75Zm16.75-48.98H3021a19.93,19.93,0,1,1,0,39.86h-0.19A19.932,19.932,0,1,1,3020.81,2979.77Z" transform="translate(-2991 -2971)"/>
  <path id="Elipsa_3_kopia" data-name="Elipsa 3 kopia" class="cls-3" d="M3018.86,3011.37a11.495,11.495,0,1,1,15.99-2.96A11.509,11.509,0,0,1,3018.86,3011.37Zm1.55-2.25a8.762,8.762,0,1,1,12.18-2.26A8.759,8.759,0,0,1,3020.41,3009.12Z" transform="translate(-2991 -2971)"/>
  <path id="Elipsa_3_kopia_2" data-name="Elipsa 3 kopia 2" class="cls-3" d="M3009.76,3001.24a9.007,9.007,0,1,1,12.52-2.32A9.006,9.006,0,0,1,3009.76,3001.24Zm1.22-1.76a6.861,6.861,0,1,1,9.54-1.77A6.862,6.862,0,0,1,3010.98,2999.48Z" transform="translate(-2991 -2971)"/>
</svg>
