<svg id="marker-party" xmlns="http://www.w3.org/2000/svg" width="60" height="79" viewBox="0 0 60 79">
  <defs>
    <style>
      .cls-1, .cls-2, .cls-3 {
        fill-rule: evenodd;
      }

      .cls-1 {
        opacity: 0.16;
      }

      .cls-2 {
        fill: #ffd829;
      }
    </style>
  </defs>
  <path id="Kształt_1_kopia_3" data-name="Kształt 1 kopia 3" class="cls-1" d="M3106.61,3039.19c0.54,1.09,1.16,2.19,1.82,3.31,0.61,1.02,1.26,2.05,1.92,3.1,0.9,1.42,1.84,2.88,2.76,4.4h0.69c2.28-1.54,4.52-3.01,6.69-4.44,1.62-1.05,3.2-2.09,4.72-3.1,1.66-1.11,3.26-2.2,4.78-3.28,4.26-3.04,7.82-5.99,10.15-9.03,3.35-5.29-3.54-9.93-12.18-10.14h-2.07c-9.02.21-20.45,5.1-21.34,10.48A16.349,16.349,0,0,0,3106.61,3039.19Z" transform="translate(-3084 -2971)"/>
  <path id="Kształt_5_kopia" data-name="Kształt 5 kopia" class="cls-2" d="M3097.06,3028.75q2.58,3.615,5.32,7.13c1.6,2.06,3.24,4.11,4.87,6.15,2.13,2.66,4.27,5.3,6.35,7.96h0.87c2.06-2.69,4.18-5.36,6.31-8.04,1.63-2.04,3.27-4.1,4.87-6.17,1.81-2.32,3.59-4.67,5.3-7.06,5.07-7.12,9.53-14.63,12.31-23.03,4.26-16.66-10.38-33.82-27.28-34.68h-4.01c-17.26.86-32.16,18.88-26.9,35.66A90.828,90.828,0,0,0,3097.06,3028.75Zm16.75-48.98H3114a19.93,19.93,0,1,1,0,39.86h-0.19A19.932,19.932,0,1,1,3113.81,2979.77Z" transform="translate(-3084 -2971)"/>
  <path id="Kształt_3" data-name="Kształt 3" class="cls-3" d="M3112.34,3013.26c0.43,0.03.87,0.05,1.31,0.05v2.04c-0.28-.01-0.56-0.02-0.83-0.04C3112.66,3014.76,3112.5,3014.09,3112.34,3013.26Zm7.63-16.57c-0.06-.84-0.13-1.66-0.23-2.46-0.8-.1-1.62-0.17-2.46-0.23,0.05,0.84.09,1.7,0.12,2.57C3118.27,2996.6,3119.13,2996.64,3119.97,2996.69Zm-14.14-5.96c0.76-.19,1.55-0.35,2.36-0.48,0.18-.83.39-1.62,0.62-2.36q-1.14.24-2.22,0.57C3106.31,2989.18,3106.06,2989.93,3105.83,2990.73Zm13.39-2.84c0.23,0.74.44,1.53,0.62,2.36,0.81,0.13,1.6.29,2.36,0.48-0.23-.8-0.48-1.55-0.76-2.27Q3120.36,2988.13,3119.22,2987.89Zm-4.84,27.46c0.28-.01.56-0.02,0.83-0.04,0.16-.55.32-1.22,0.48-2.05-0.43.03-.87,0.05-1.31,0.05v2.04Zm6.96-1.87a14.629,14.629,0,0,0,1.98-1.29q0.255-.39.48-0.81c-0.58.25-1.19,0.48-1.81,0.69C3121.79,3012.56,3121.57,3013.03,3121.34,3013.48Zm-14.38-1.13a17.733,17.733,0,0,0,.84,1.69,16.278,16.278,0,0,0,2.06.74,18.42,18.42,0,0,1-.79-1.93C3108.35,3012.71,3107.64,3012.54,3106.96,3012.35Zm11.21,2.43a15.6,15.6,0,0,0,2.05-.74,17.761,17.761,0,0,0,.85-1.69c-0.68.19-1.39,0.36-2.11,0.5A18.42,18.42,0,0,1,3118.17,3014.78Zm-6.14-30.07c-0.42.06-.82,0.13-1.23,0.21a17.684,17.684,0,0,0-.88,2.02c0.55-.09,1.1-0.16,1.66-0.21C3111.72,2985.98,3111.87,2985.3,3112.03,2984.71Zm-2.11,28.29a17.491,17.491,0,0,0,.88,2.01c0.41,0.09.81,0.16,1.23,0.21q-0.24-.885-0.45-2.01C3111.02,3013.16,3110.47,3013.09,3109.92,3013Zm17.41-13.4h2.03c-0.01-.28-0.02-0.55-0.04-0.83-0.55-.16-1.22-0.32-2.04-0.48C3127.31,2998.72,3127.32,2999.16,3127.33,2999.6Zm-28.66,0h2.03c0.01-.44.03-0.88,0.05-1.31-0.82.16-1.49,0.32-2.04,0.48C3098.69,2999.05,3098.68,2999.32,3098.67,2999.6Zm2.77,0h2.42c0.01-.61.03-1.2,0.06-1.8-0.85.1-1.66,0.22-2.42,0.35C3101.47,2998.63,3101.45,2999.11,3101.44,2999.6Zm23.96,10.18q0.42-.24.81-0.48a15.391,15.391,0,0,0,1.29-1.99c-0.46.23-.93,0.45-1.41,0.65C3125.88,3008.58,3125.65,3009.19,3125.4,3009.78Zm0.97-2.74c0.59-.26,1.15-0.55,1.68-0.85a16.137,16.137,0,0,0,.74-2.05,18.243,18.243,0,0,1-1.92.78C3126.73,3005.65,3126.56,3006.36,3126.37,3007.04Zm-10.37,8.18c0.42-.05.82-0.12,1.23-0.21a17.491,17.491,0,0,0,.88-2.01c-0.54.09-1.1,0.16-1.65,0.21C3116.31,3013.96,3116.16,3014.63,3116,3015.22Zm7.02-24.28c0.75,0.2,1.47.43,2.17,0.69a2.868,2.868,0,0,0-2.85-2.86C3122.59,2989.46,3122.82,2990.19,3123.02,2990.94Zm0.78-2.39q-0.225-.4-0.48-0.81a15.654,15.654,0,0,0-1.98-1.29c0.23,0.46.45,0.93,0.65,1.42C3122.61,2988.07,3123.22,2988.3,3123.8,2988.55Zm2.73,9.6c-0.75-.13-1.57-0.25-2.42-0.35,0.03,0.6.05,1.19,0.05,1.8h2.43C3126.58,2999.11,3126.56,2998.63,3126.53,2998.15Zm0.69-.63c0.75,0.14,1.43.29,2.01,0.46a12.135,12.135,0,0,0-.21-1.23,14.985,14.985,0,0,0-2-.88C3127.1,2996.41,3127.17,2996.96,3127.22,2997.52Zm-1.16,7.67c-0.73.23-1.52,0.43-2.35,0.62-0.13.81-.29,1.6-0.48,2.36a23.015,23.015,0,0,0,2.26-.76Q3125.82,3006.33,3126.06,3005.19Zm-2.7-7.47c-0.83-.09-1.7-0.17-2.6-0.23,0.03,0.69.05,1.39,0.05,2.11h2.61C3123.42,2998.96,3123.4,2998.34,3123.36,2997.72Zm-19.13,13.66q0.225,0.42.48,0.81a14.629,14.629,0,0,0,1.98,1.29c-0.23-.45-0.45-0.92-0.65-1.41C3105.42,3011.86,3104.81,3011.63,3104.23,3011.38Zm7.62-21.53c0.6-.03,1.19-0.05,1.8-0.06v-2.43c-0.49.01-.97,0.03-1.45,0.06C3112.07,2988.18,3111.96,2988.99,3111.85,2989.85Zm9.22-2.26a17.761,17.761,0,0,0-.85-1.69,15.6,15.6,0,0,0-2.05-.74,18.22,18.22,0,0,1,.79,1.92C3119.68,2987.22,3120.39,2987.39,3121.07,2987.59Zm-1.43,18.89c-0.78.08-1.58,0.15-2.41,0.21-0.06.89-.13,1.76-0.22,2.59,0.75-.06,1.48-0.14,2.2-0.25C3119.37,3008.22,3119.52,3007.36,3119.64,3006.48Zm4.42-9.43c0.85,0.1,1.65.21,2.41,0.34-0.06-.61-0.15-1.21-0.25-1.8-0.74-.24-1.54-0.46-2.39-0.66C3123.92,2995.63,3124,2996.33,3124.06,2997.05Zm-8.23-9.63c-0.48-.03-0.96-0.05-1.45-0.06v2.43c0.61,0.01,1.2.03,1.79,0.06C3116.07,2988.99,3115.96,2988.18,3115.83,2987.42Zm-13.89,4.56c0.21-.63.44-1.24,0.69-1.82q-0.42.225-.81,0.48a15.281,15.281,0,0,0-1.29,1.98C3100.99,2992.39,3101.46,2992.18,3101.94,2991.98Zm10.4-5.31c0.43-.03.87-0.04,1.31-0.05v-2.03c-0.28,0-.56.02-0.83,0.04C3112.66,2985.18,3112.5,2985.85,3112.34,2986.67Zm2.87-2.04c-0.27-.02-0.55-0.04-0.83-0.04v2.03c0.44,0.01.88,0.02,1.31,0.05C3115.53,2985.85,3115.37,2985.18,3115.21,2984.63Zm-4.11,5.27c0.1-.85.22-1.66,0.34-2.41-0.61.06-1.2,0.14-1.79,0.24-0.24.74-.46,1.55-0.66,2.4C3109.69,2990.04,3110.39,2989.96,3111.1,2989.9Zm12.61,4.23c0.83,0.18,1.62.39,2.35,0.62a21.18,21.18,0,0,0-.57-2.22,23.014,23.014,0,0,0-2.26-.77Q3123.515,2992.915,3123.71,2994.13Zm2.66-1.24c0.19,0.69.36,1.4,0.5,2.12a18.22,18.22,0,0,1,1.92.79,16.278,16.278,0,0,0-.74-2.06C3127.52,2993.44,3126.96,2993.16,3126.37,2992.89Zm-7.33-2.76c-0.2-.85-0.42-1.66-0.66-2.4-0.58-.1-1.18-0.18-1.79-0.24,0.12,0.75.24,1.56,0.34,2.41C3117.64,2989.96,3118.35,2990.04,3119.04,2990.13Zm-2.03.52c0.09,0.84.16,1.7,0.22,2.6,0.83,0.05,1.63.12,2.41,0.21-0.12-.89-0.27-1.74-0.43-2.56C3118.49,2990.8,3117.76,2990.72,3117.01,2990.65Zm-15.99,5.22a14.587,14.587,0,0,0-2.01.88,12.135,12.135,0,0,0-.21,1.23c0.58-.17,1.26-0.32,2.01-0.46Q3100.885,2996.68,3101.02,2995.87Zm3.7,1.1c0.83-.09,1.7-0.16,2.59-0.23,0.06-.82.13-1.63,0.21-2.41-0.88.12-1.73,0.27-2.55,0.43C3104.87,2995.48,3104.79,2996.22,3104.72,2996.97Zm15.79-2.64c0.09,0.78.16,1.59,0.21,2.41,0.89,0.07,1.76.14,2.59,0.23-0.06-.75-0.15-1.49-0.25-2.21C3122.25,2994.6,3121.39,2994.45,3120.51,2994.33Zm-4.25-3.73c-0.62-.04-1.24-0.06-1.88-0.07v2.62c0.72,0.01,1.42.03,2.11,0.06C3116.43,2992.31,3116.35,2991.44,3116.26,2990.6Zm0.23,16.13c-0.69.03-1.39,0.05-2.11,0.05v2.62c0.64-.01,1.26-0.03,1.88-0.07C3116.35,3008.5,3116.43,3007.63,3116.49,3006.73Zm9.72-16.09q-0.39-.255-0.81-0.48c0.25,0.58.48,1.19,0.69,1.82,0.48,0.2.95,0.41,1.41,0.64A15.281,15.281,0,0,0,3126.21,2990.64Zm-14.67,2.57c0.69-.03,1.39-0.05,2.11-0.06v-2.62c-0.64.01-1.26,0.03-1.88,0.07C3111.68,2991.44,3111.6,2992.31,3111.54,2993.21Zm-9.57,1.54c0.73-.23,1.52-0.44,2.35-0.62q0.195-1.215.48-2.37a23.014,23.014,0,0,0-2.26.77Q3102.21,2993.595,3101.97,2994.75Zm-0.31-1.86c-0.59.27-1.15,0.55-1.68,0.85a16.278,16.278,0,0,0-.74,2.06,18.22,18.22,0,0,1,1.92-.79C3101.3,2994.29,3101.47,2993.58,3101.66,2992.89Zm-0.5,12.03a18.243,18.243,0,0,1-1.92-.78,16.137,16.137,0,0,0,.74,2.05c0.53,0.3,1.09.59,1.68,0.85C3101.47,3006.36,3101.3,3005.65,3101.16,3004.92Zm6.87,3.99c-0.16-.81-0.3-1.65-0.41-2.53-0.88-.11-1.72-0.25-2.52-0.41,0.14,0.84.31,1.65,0.51,2.42C3106.39,3008.59,3107.19,3008.76,3108.03,3008.91Zm2.99,0.37c-0.09-.83-0.16-1.7-0.22-2.59-0.83-.06-1.63-0.13-2.41-0.21,0.12,0.88.27,1.74,0.43,2.55C3109.54,3009.14,3110.27,3009.22,3111.02,3009.28Zm-5.92-15.32c0.8-.15,1.64-0.29,2.52-0.41,0.11-.87.25-1.71,0.41-2.52-0.84.14-1.64,0.31-2.42,0.51C3105.41,2992.32,3105.24,2993.13,3105.1,2993.96Zm6.67,15.37c0.62,0.04,1.24.06,1.88,0.07v-2.62c-0.72,0-1.42-.02-2.11-0.05C3111.6,3007.63,3111.68,3008.5,3111.77,3009.33Zm-6.97-1.16c-0.19-.76-0.35-1.55-0.48-2.36-0.83-.19-1.62-0.39-2.35-0.62q0.24,1.14.57,2.22A23.015,23.015,0,0,0,3104.8,3008.17Zm11.86-4.79c-0.75.02-1.51,0.03-2.28,0.04v2.62c0.73,0,1.45-.03,2.16-0.06C3116.59,3005.14,3116.63,3004.27,3116.66,3003.38Zm6.65-.41c-0.83.09-1.7,0.16-2.59,0.22-0.05.83-.12,1.64-0.21,2.42,0.88-.12,1.74-0.27,2.55-0.44C3123.16,3004.45,3123.25,3003.72,3123.31,3002.97Zm3.16-.42c-0.76.12-1.56,0.24-2.41,0.34-0.06.71-.14,1.42-0.23,2.11,0.85-.19,1.65-0.41,2.39-0.65C3126.32,3003.76,3126.41,3003.16,3126.47,3002.55Zm0.55,1.52a16.393,16.393,0,0,0,2-.88q0.135-.615.21-1.23c-0.58.16-1.26,0.31-2.01,0.45C3127.17,3002.97,3127.1,3003.53,3127.02,3004.07Zm-26.21-1.66q-1.125-.21-2.01-0.45,0.075,0.615.21,1.23a15.906,15.906,0,0,0,2.01.88C3100.93,3003.53,3100.86,3002.97,3100.81,3002.41Zm3.39,2.59c-0.09-.69-0.17-1.4-0.22-2.11-0.86-.1-1.66-0.22-2.42-0.34,0.07,0.61.15,1.21,0.25,1.8C3102.55,3004.59,3103.35,3004.81,3104.2,3005Zm15.54,0.71c0.1-.8.17-1.63,0.23-2.47-0.84.05-1.7,0.09-2.57,0.12q-0.045,1.32-.12,2.58C3118.12,3005.88,3118.94,3005.8,3119.74,3005.71Zm-11.45,0c0.8,0.09,1.62.17,2.46,0.23q-0.075-1.26-.12-2.58c-0.87-.03-1.73-0.07-2.57-0.12C3108.12,3004.08,3108.2,3004.91,3108.29,3005.71Zm8.43-5.37h-2.34v2.33c0.78,0,1.55-.01,2.3-0.03C3116.7,3001.89,3116.71,3001.12,3116.72,3000.34Zm10.56,1.31a20,20,0,0,0,2.04-.49c0.02-.27.03-0.55,0.04-0.82h-2.03C3127.32,3000.78,3127.31,3001.22,3127.28,3001.65Zm-26.58-1.31h-2.03c0.01,0.27.02,0.55,0.04,0.82a20,20,0,0,0,2.04.49C3100.73,3001.22,3100.71,3000.78,3100.7,3000.34Zm6.52,0h-2.61c0,0.63.02,1.26,0.06,1.88,0.83,0.09,1.7.16,2.6,0.23C3107.24,3001.76,3107.22,3001.05,3107.22,3000.34Zm12.85,0h-2.62q0,1.155-.03,2.28c0.89-.03,1.75-0.07,2.59-0.12Q3120.07,3001.435,3120.07,3000.34Zm-16.15,1.79c-0.03-.59-0.05-1.19-0.06-1.79h-2.42c0.01,0.49.03,0.97,0.06,1.45C3102.26,3001.91,3103.07,3002.03,3103.92,3002.13Zm7.43,0.51c0.75,0.02,1.52.03,2.3,0.03v-2.33h-2.33C3111.32,3001.12,3111.33,3001.89,3111.35,3002.64Zm9.41-.19c0.9-.07,1.77-0.14,2.6-0.23,0.04-.62.06-1.25,0.06-1.88h-2.61C3120.81,3001.05,3120.79,3001.76,3120.76,3002.45Zm-4.17,10c0.61-.06,1.2-0.14,1.79-0.24,0.24-.75.46-1.55,0.66-2.41-0.69.1-1.4,0.18-2.11,0.23C3116.83,3010.89,3116.71,3011.69,3116.59,3012.45Zm-16.06-5.14a15.391,15.391,0,0,0,1.29,1.99q0.39,0.24.81,0.48c-0.25-.59-0.48-1.2-0.69-1.82C3101.46,3007.76,3100.99,3007.54,3100.53,3007.31Zm8.28,4.74c-0.23-.74-0.44-1.53-0.62-2.37-0.81-.13-1.6-0.29-2.36-0.47,0.23,0.79.48,1.55,0.76,2.26A22.56,22.56,0,0,0,3108.81,3012.05Zm13.39-2.84c-0.76.18-1.55,0.34-2.36,0.47-0.18.84-.39,1.63-0.62,2.37a22.56,22.56,0,0,0,2.22-.58C3121.72,3010.76,3121.97,3010,3122.2,3009.21Zm0.14,1.96a20.165,20.165,0,0,0,2.01-.84,21.4,21.4,0,0,0,.84-2.02c-0.7.25-1.42,0.48-2.17,0.69C3122.82,3009.75,3122.59,3010.47,3122.34,3011.17Zm-10.9,1.28c-0.12-.76-0.24-1.56-0.34-2.42-0.71-.05-1.41-0.13-2.11-0.23,0.2,0.86.42,1.66,0.66,2.41C3110.24,3012.31,3110.83,3012.39,3111.44,3012.45Zm-12.36-23.62c0.07-1.26.74-2.26,1.54-2.27h0c-0.85-.02-1.55-1.13-1.55-2.5,0,1.38-.7,2.5-1.56,2.5,0.82,0,1.49,1,1.56,2.27h0.01Zm27.56-1.74h0.01c0.07-1.26.73-2.26,1.54-2.27h0c-0.85-.02-1.55-1.13-1.55-2.51,0,1.39-.7,2.51-1.56,2.51C3125.89,2984.82,3126.56,2985.82,3126.64,2987.09Zm-19.66-3.09H3107c0.11-1.57,1.1-2.81,2.32-2.83h0c-1.29-.02-2.33-1.4-2.33-3.11,0,1.72-1.06,3.11-2.36,3.11C3105.86,2981.17,3106.87,2982.41,3106.98,2984Z" transform="translate(-3084 -2971)"/>
</svg>
