<svg id="marker_wedding" xmlns="http://www.w3.org/2000/svg" width="60" height="95.38" viewBox="0 0 60 95.38">
  <defs>
    <style>
      .cls-1, .cls-2, .cls-3, .cls-4 {
        fill-rule: evenodd;
      }

      .cls-1 {
        opacity: 0.16;
      }

      .cls-2 {
        fill: #ffd829;
      }

      .cls-3 {
        fill: #39320b;
      }
    </style>
  </defs>
  <path id="Kształt_1_kopia_2" data-name="Kształt 1 kopia 2" class="cls-1" d="M3014.61,3039.19c0.54,1.09,1.16,2.19,1.82,3.31,0.61,1.02,1.26,2.05,1.92,3.1,0.9,1.42,1.84,2.88,2.76,4.4h0.69c2.28-1.54,4.52-3.01,6.69-4.44,1.62-1.05,3.2-2.09,4.72-3.1,1.66-1.11,3.26-2.2,4.78-3.28,4.26-3.04,7.82-5.99,10.15-9.03,3.35-5.29-3.54-9.93-12.18-10.14h-2.07c-9.02.21-20.44,5.1-21.34,10.48A16.349,16.349,0,0,0,3014.61,3039.19Z" transform="translate(-2991 -2954.62)"/>
  <path id="Kształt_5" data-name="Kształt 5" class="cls-2" d="M3004.06,3028.75q2.58,3.615,5.32,7.13c1.6,2.06,3.24,4.11,4.87,6.15,2.13,2.66,4.27,5.3,6.35,7.96h0.87c2.06-2.69,4.18-5.36,6.31-8.04,1.63-2.04,3.27-4.1,4.87-6.17,1.81-2.32,3.59-4.67,5.3-7.06,5.07-7.12,9.53-14.63,12.31-23.03,4.26-16.66-10.38-33.82-27.28-34.68h-4.01c-17.26.86-32.16,18.88-26.9,35.66A90.828,90.828,0,0,0,3004.06,3028.75Zm16.75-48.98H3021a19.93,19.93,0,1,1,0,39.86h-0.19A19.932,19.932,0,1,1,3020.81,2979.77Z" transform="translate(-2991 -2954.62)"/>
  <path id="KOŚCIÓŁ" class="cls-3" d="M2992.96,2957.33h-1.75v9.4h1.75v-4.14h0.55a1.137,1.137,0,0,1,.47.08,0.659,0.659,0,0,1,.29.24l2.66,3.47a0.7,0.7,0,0,0,.25.26,0.979,0.979,0,0,0,.47.09h1.54l-3.26-4.4a2.05,2.05,0,0,0-.33-0.37,1.5,1.5,0,0,0-.39-0.22,1.871,1.871,0,0,0,.58-0.5l3.16-3.91h-1.5a1.187,1.187,0,0,0-.46.08,0.976,0.976,0,0,0-.34.29l-2.59,3.28a0.741,0.741,0,0,1-.28.22,1.163,1.163,0,0,1-.41.07h-0.41v-3.94Zm16.06,3.39a4.727,4.727,0,0,0-.44-1.16,4.568,4.568,0,0,0-.71-0.97,4.218,4.218,0,0,0-.95-0.73,4.779,4.779,0,0,0-1.16-.47,5.231,5.231,0,0,0-1.34-.17,4.863,4.863,0,0,0-1.94.37,4.38,4.38,0,0,0-1.51,1,4.544,4.544,0,0,0-.97,1.52,5.242,5.242,0,0,0-.35,1.92,5.151,5.151,0,0,0,.35,1.91,4.49,4.49,0,0,0,.97,1.53,4.38,4.38,0,0,0,1.51,1,5.041,5.041,0,0,0,1.94.36,5.129,5.129,0,0,0,1.95-.36,4.434,4.434,0,0,0,1.5-1,4.49,4.49,0,0,0,.97-1.53,5.359,5.359,0,0,0,.34-1.91A5.057,5.057,0,0,0,3009.02,2960.72Zm-1.84,2.7a2.942,2.942,0,0,1-.59,1.04,2.65,2.65,0,0,1-.93.65,3.458,3.458,0,0,1-2.48,0,2.6,2.6,0,0,1-.94-0.65,3.1,3.1,0,0,1-.59-1.04,4.317,4.317,0,0,1-.21-1.39,4.274,4.274,0,0,1,.21-1.39,3.008,3.008,0,0,1,.59-1.04,2.507,2.507,0,0,1,.94-0.66,3.458,3.458,0,0,1,2.48,0,2.552,2.552,0,0,1,.93.66,2.856,2.856,0,0,1,.59,1.04,4.274,4.274,0,0,1,.21,1.39A4.317,4.317,0,0,1,3007.18,2963.42Zm9.47-5.21a3.562,3.562,0,0,0-1.19-.73,4.483,4.483,0,0,0-1.54-.26,3.56,3.56,0,0,0-1.31.23,2.924,2.924,0,0,0-.96.61,2.673,2.673,0,0,0-.6.86,2.7,2.7,0,0,0-.2,1,2.835,2.835,0,0,0,.18,1.08,2.2,2.2,0,0,0,.5.74,2.552,2.552,0,0,0,.69.47,5.879,5.879,0,0,0,.79.31c0.27,0.09.54,0.17,0.8,0.24a4.516,4.516,0,0,1,.69.27,1.41,1.41,0,0,1,.49.4,0.882,0.882,0,0,1,.19.6,1.3,1.3,0,0,1-.41,1.02,1.747,1.747,0,0,1-1.16.35,2.3,2.3,0,0,1-.83-0.13,3.152,3.152,0,0,1-.61-0.3c-0.17-.11-0.32-0.2-0.45-0.29a0.63,0.63,0,0,0-.35-0.14,0.36,0.36,0,0,0-.22.07,0.5,0.5,0,0,0-.17.15l-0.51.84a3.872,3.872,0,0,0,.62.5,3.336,3.336,0,0,0,.75.39,4.062,4.062,0,0,0,.84.25,4.308,4.308,0,0,0,.88.09,3.7,3.7,0,0,0,1.38-.24,2.789,2.789,0,0,0,1.03-.65,2.589,2.589,0,0,0,.63-0.96,3.161,3.161,0,0,0,.22-1.2,2.433,2.433,0,0,0-.18-0.99,2.205,2.205,0,0,0-.49-0.69,2.772,2.772,0,0,0-.7-0.47,7.919,7.919,0,0,0-.8-0.33c-0.27-.09-0.54-0.18-0.8-0.26a4.5,4.5,0,0,1-.69-0.28,1.368,1.368,0,0,1-.49-0.38,0.784,0.784,0,0,1-.19-0.55,1.28,1.28,0,0,1,.09-0.48,0.912,0.912,0,0,1,.28-0.37,1.181,1.181,0,0,1,.46-0.24,1.994,1.994,0,0,1,.63-0.09,2.111,2.111,0,0,1,.7.1,3.7,3.7,0,0,1,.52.22c0.15,0.09.27,0.16,0.38,0.23a0.629,0.629,0,0,0,.29.1,0.38,0.38,0,0,0,.22-0.06,0.577,0.577,0,0,0,.17-0.2Zm-1.68-3.58a1.412,1.412,0,0,0-.22.01,0.523,0.523,0,0,0-.18.03,0.392,0.392,0,0,0-.14.08,1,1,0,0,0-.13.15l-1.36,1.76h1.17a1.119,1.119,0,0,0,.29-0.03,0.492,0.492,0,0,0,.25-0.14l2.11-1.86h-1.79Zm10.55,9.92a0.419,0.419,0,0,0-.14.09,3.089,3.089,0,0,1-.43.33,2.768,2.768,0,0,1-.46.22,3.614,3.614,0,0,1-.54.12,4.139,4.139,0,0,1-.64.04,2.981,2.981,0,0,1-1.12-.22,2.537,2.537,0,0,1-.9-0.65,3.043,3.043,0,0,1-.61-1.04,4.087,4.087,0,0,1-.23-1.41,4.293,4.293,0,0,1,.21-1.4,3.008,3.008,0,0,1,.59-1.04,2.42,2.42,0,0,1,.9-0.65,2.879,2.879,0,0,1,1.15-.23,3.061,3.061,0,0,1,.65.06,3.983,3.983,0,0,1,.5.13,3.431,3.431,0,0,1,.38.18c0.11,0.07.2,0.13,0.29,0.18a1.966,1.966,0,0,0,.22.14,0.394,0.394,0,0,0,.2.05,0.49,0.49,0,0,0,.23-0.05,0.571,0.571,0,0,0,.13-0.14l0.59-.81a4.454,4.454,0,0,0-1.36-.89,4.724,4.724,0,0,0-1.82-.34,4.823,4.823,0,0,0-1.89.36,4.492,4.492,0,0,0-1.46.99,4.309,4.309,0,0,0-.95,1.52,5.271,5.271,0,0,0-.34,1.94,5.7,5.7,0,0,0,.31,1.93,4.311,4.311,0,0,0,.91,1.52,4.032,4.032,0,0,0,1.43.99,5.27,5.27,0,0,0,3.88-.02,3.754,3.754,0,0,0,1.41-1.08l-0.69-.75a0.358,0.358,0,0,0-.25-0.11A0.282,0.282,0,0,0,3025.52,2964.55Zm4.45-7.22h-1.76v9.4h1.76v-9.4Zm12.05,3.39a4.727,4.727,0,0,0-.44-1.16,4.568,4.568,0,0,0-.71-0.97,4.218,4.218,0,0,0-.95-0.73,4.779,4.779,0,0,0-1.16-.47,5.231,5.231,0,0,0-1.34-.17,4.863,4.863,0,0,0-1.94.37,4.38,4.38,0,0,0-1.51,1,4.544,4.544,0,0,0-.97,1.52,5.242,5.242,0,0,0-.35,1.92,5.151,5.151,0,0,0,.35,1.91,4.49,4.49,0,0,0,.97,1.53,4.38,4.38,0,0,0,1.51,1,5.041,5.041,0,0,0,1.94.36,5.129,5.129,0,0,0,1.95-.36,4.434,4.434,0,0,0,1.5-1,4.49,4.49,0,0,0,.97-1.53,5.359,5.359,0,0,0,.34-1.91A5.057,5.057,0,0,0,3042.02,2960.72Zm-1.84,2.7a2.942,2.942,0,0,1-.59,1.04,2.65,2.65,0,0,1-.93.65,3.458,3.458,0,0,1-2.48,0,2.6,2.6,0,0,1-.94-0.65,3.1,3.1,0,0,1-.59-1.04,4.317,4.317,0,0,1-.21-1.39,4.274,4.274,0,0,1,.21-1.39,3.008,3.008,0,0,1,.59-1.04,2.507,2.507,0,0,1,.94-0.66,3.458,3.458,0,0,1,2.48,0,2.552,2.552,0,0,1,.93.66,2.856,2.856,0,0,1,.59,1.04,4.274,4.274,0,0,1,.21,1.39A4.317,4.317,0,0,1,3040.18,2963.42Zm-1.81-8.79a1.479,1.479,0,0,0-.22.01,0.467,0.467,0,0,0-.17.03,0.548,0.548,0,0,0-.15.08c-0.04.04-.08,0.09-0.13,0.15l-1.35,1.76h1.16a1.262,1.262,0,0,0,.3-0.03,0.492,0.492,0,0,0,.25-0.14l2.1-1.86h-1.79Zm7.8,10.65v-2.75l2.11-1.09a0.355,0.355,0,0,0,.22-0.35v-1.18l-2.33,1.16v-3.74h-1.75v4.53l-0.97.51a0.317,0.317,0,0,0-.2.31v1.21l1.17-.59v3.43h5.51v-1.45h-3.76Z" transform="translate(-2991 -2954.62)"/>
  <path id="Elipsa_3_kopia" data-name="Elipsa 3 kopia" class="cls-4" d="M3018.86,3011.37a11.495,11.495,0,1,1,15.99-2.96A11.509,11.509,0,0,1,3018.86,3011.37Zm1.55-2.25a8.762,8.762,0,1,1,12.18-2.26A8.759,8.759,0,0,1,3020.41,3009.12Z" transform="translate(-2991 -2954.62)"/>
  <path id="Elipsa_3_kopia_2" data-name="Elipsa 3 kopia 2" class="cls-4" d="M3009.76,3001.24a9.007,9.007,0,1,1,12.52-2.32A9.006,9.006,0,0,1,3009.76,3001.24Zm1.22-1.76a6.861,6.861,0,1,1,9.54-1.77A6.862,6.862,0,0,1,3010.98,2999.48Z" transform="translate(-2991 -2954.62)"/>
</svg>
