<?xml version="1.0" standalone="no"?>
<!DOCTYPE svg PUBLIC "-//W3C//DTD SVG 20010904//EN"
 "http://www.w3.org/TR/2001/REC-SVG-20010904/DTD/svg10.dtd">
<svg version="1.0" xmlns="http://www.w3.org/2000/svg"
 width="260.000000pt" height="260.000000pt" viewBox="0 0 260.000000 260.000000"
 preserveAspectRatio="xMidYMid meet">
<metadata>
Created by potrace 1.14, written by Peter Selinger 2001-2017
</metadata>
<g transform="translate(0.000000,260.000000) scale(0.100000,-0.100000)"
fill="#000000" stroke="none">
<path d="M320 2083 c0 -18 51 -62 79 -68 16 -3 37 -15 47 -26 16 -18 18 -50
19 -417 0 -218 -3 -417 -7 -442 -9 -52 -39 -84 -97 -101 -41 -12 -46 -26 -18
-53 16 -16 49 -17 399 -13 211 2 392 6 403 9 105 30 137 42 183 68 29 17 72
50 97 74 44 42 45 42 46 17 5 -165 -2 -488 -11 -512 -14 -32 -39 -51 -92 -68
-43 -14 -48 -30 -15 -51 29 -19 517 -22 524 -3 6 14 -32 53 -52 53 -35 0 -65
24 -75 59 -5 20 -8 113 -7 206 2 163 3 170 22 168 106 -11 240 -1 309 23 250
89 308 365 110 521 -96 75 -144 85 -399 87 l-210 2 -21 61 c-41 119 -112 212
-219 288 -154 109 -230 123 -670 125 -190 0 -345 -3 -345 -7z m674 -94 c205
-48 300 -206 291 -484 -4 -133 -19 -197 -66 -278 -66 -112 -159 -167 -298
-174 -112 -7 -166 7 -179 46 -9 25 -16 887 -7 901 6 10 208 1 259 -11z m930
-484 c103 -50 121 -268 31 -373 -45 -52 -124 -76 -207 -63 -7 1 -9 441 -2 453
9 14 140 2 178 -17z"/>
</g>
</svg>
